<svg width="17" height="19" viewBox="0 0 17 19" fill="none" xmlns="http://www.w3.org/2000/svg">
<path fill-rule="evenodd" clip-rule="evenodd" d="M8.50001 7.80001C9.45479 7.80001 10.3705 7.42072 11.0456 6.74559C11.7207 6.07046 12.1 5.15479 12.1 4.20001C12.1 3.24523 11.7207 2.32955 11.0456 1.65442C10.3705 0.979291 9.45479 0.600006 8.50001 0.600006C7.54523 0.600006 6.62955 0.979291 5.95442 1.65442C5.27929 2.32955 4.90001 3.24523 4.90001 4.20001C4.90001 5.15479 5.27929 6.07046 5.95442 6.74559C6.62955 7.42072 7.54523 7.80001 8.50001 7.80001ZM0.100006 18.6C0.100006 17.4969 0.317279 16.4046 0.739418 15.3855C1.16156 14.3663 1.7803 13.4403 2.56031 12.6603C3.34032 11.8803 4.26633 11.2616 5.28547 10.8394C6.3046 10.4173 7.3969 10.2 8.50001 10.2C9.60311 10.2 10.6954 10.4173 11.7145 10.8394C12.7337 11.2616 13.6597 11.8803 14.4397 12.6603C15.2197 13.4403 15.8385 14.3663 16.2606 15.3855C16.6827 16.4046 16.9 17.4969 16.9 18.6H0.100006Z" fill="#8B8C8C"/>
</svg>
